# Blender v2.80 (sub 75) OBJ File: 'robot_1.blend'
# www.blender.org
mtllib field_1.mtl
o Epic_4415_EPIC_4415__Where_is_this?
v 42.827065 32.023792 4.496982
v 36.769737 32.023792 4.496982
v 36.769737 32.083591 2.195945
v 37.493675 32.082432 2.240428
v 38.164864 32.081963 2.258512
v 38.781349 32.082130 2.252154
v 39.341194 32.082878 2.223312
v 39.842453 32.084160 2.173944
v 40.283180 32.085926 2.106009
v 40.661446 32.088123 2.021465
v 40.975281 32.090702 1.922269
v 41.222763 32.093609 1.810379
v 41.401947 32.096798 1.687754
v 41.510887 32.100212 1.556351
v 41.547623 32.103802 1.418129
v 41.521561 32.106583 1.311213
v 41.445732 32.109257 1.208281
v 41.323669 32.111801 1.110345
v 41.158920 32.114189 1.018419
v 40.955017 32.116398 0.933514
v 40.715500 32.118397 0.856644
v 40.443916 32.120159 0.788821
v 40.143806 32.121658 0.731059
v 39.818710 32.122871 0.684370
v 39.472160 32.123772 0.649766
v 39.107704 32.124329 0.628262
v 38.728874 32.124523 0.620868
v 38.478989 32.124462 0.623160
v 38.229179 32.124283 0.630021
v 37.979507 32.123989 0.641428
v 37.730049 32.123573 0.657358
v 37.480865 32.123043 0.677790
v 37.232025 32.122395 0.702701
v 36.983604 32.121632 0.732068
v 36.735664 32.120754 0.765869
v 36.488289 32.119762 0.804080
v 36.241531 32.118652 0.846681
v 35.995476 32.117432 0.893648
v 35.750183 32.116100 0.944958
v 35.750183 32.133114 0.290297
v 36.040337 32.134315 0.244091
v 36.322151 32.135391 0.202612
v 36.597313 32.136349 0.165725
v 36.867470 32.137192 0.133293
v 37.134293 32.137924 0.105183
v 37.399452 32.138546 0.081259
v 37.664619 32.139061 0.061386
v 37.931442 32.139477 0.045429
v 38.201599 32.139793 0.033253
v 38.476753 32.140015 0.024723
v 38.758575 32.140144 0.019704
v 39.048729 32.140186 0.018061
v 39.678185 32.139870 0.030267
v 40.274391 32.138943 0.066015
v 40.833260 32.137436 0.123998
v 41.350685 32.135384 0.202913
v 41.822571 32.132824 0.301452
v 42.244827 32.129787 0.418312
v 42.613358 32.126308 0.552187
v 42.924057 32.122421 0.701771
v 43.172844 32.118156 0.865759
v 43.355621 32.113556 1.042845
v 43.468300 32.108646 1.231725
v 43.506760 32.103466 1.431093
v 43.468002 32.098270 1.631064
v 43.353310 32.093323 1.821471
v 43.165031 32.088665 2.000579
v 42.905533 32.084351 2.166656
v 42.577187 32.080418 2.317970
v 42.182343 32.076916 2.452786
v 41.723351 32.073887 2.569372
v 41.202583 32.071373 2.665995
v 40.622406 32.069427 2.740922
v 39.985168 32.068089 2.792420
v 39.293228 32.067406 2.818756
v 38.548950 32.067417 2.818197
v 38.548950 32.038612 3.926584
v 42.827065 32.038612 3.926584
v 30.752388 32.023792 4.496982
v 28.793251 32.023792 4.496982
v 28.793251 32.138672 0.076398
v 30.752388 32.138672 0.076398
v 22.715931 32.022274 4.555318
v 21.876301 32.022274 4.555318
v 14.979343 32.093361 1.820001
v 14.979343 32.100941 1.528320
v 20.756794 32.100941 1.528320
v 20.756794 32.138672 0.076398
v 22.715931 32.138672 0.076398
v 22.715931 32.100941 1.528320
v 24.175285 32.100941 1.528320
v 24.175285 32.086117 2.098718
v 22.715931 32.086117 2.098718
v 20.716816 32.053436 3.356186
v 20.756794 32.053436 3.356186
v 20.756794 32.086117 2.098718
v 17.598186 32.086117 2.098718
v 12.720341 32.022274 4.555318
v 11.880711 32.022274 4.555318
v 4.983749 32.093361 1.820001
v 4.983749 32.100941 1.528320
v 10.761204 32.100941 1.528320
v 10.761204 32.138672 0.076398
v 12.720341 32.138672 0.076398
v 12.720341 32.100941 1.528320
v 14.179695 32.100941 1.528320
v 14.179695 32.086117 2.098718
v 12.720341 32.086117 2.098718
v 10.721222 32.053436 3.356186
v 10.761204 32.053436 3.356186
v 10.761204 32.086117 2.098718
v 7.602596 32.086117 2.098718
v -1.833244 32.031708 4.192338
v -2.289120 32.030144 4.252583
v -2.728127 32.028728 4.307000
v -3.151722 32.027462 4.355699
v -3.561367 32.026344 4.398795
v -3.958519 32.025364 4.436399
v -4.344635 32.024529 4.468624
v -4.721172 32.023827 4.495583
v -5.089584 32.023262 4.517388
v -5.451336 32.022823 4.534151
v -5.807880 32.022518 4.545986
v -6.160671 32.022335 4.553004
v -6.511181 32.022274 4.555318
v -7.569588 32.022800 4.535152
v -8.571291 32.024334 4.476096
v -9.509544 32.026821 4.380310
v -10.377623 32.030212 4.249954
v -11.168791 32.034439 4.087189
v -11.876314 32.039455 3.894175
v -12.493462 32.045204 3.673074
v -13.013498 32.051620 3.426045
v -13.429691 32.058659 3.155251
v -13.735310 32.066257 2.862849
v -13.923618 32.074364 2.551003
v -13.987885 32.082916 2.221872
v -13.940866 32.089104 1.983797
v -13.798336 32.095524 1.736787
v -13.558071 32.102028 1.486492
v -13.217850 32.108471 1.238559
v -12.775452 32.114704 0.998639
v -12.228657 32.120586 0.772380
v -11.575241 32.125961 0.565431
v -10.812984 32.130692 0.383442
v -9.939665 32.134628 0.232061
v -8.953064 32.137619 0.116938
v -7.850956 32.139523 0.043722
v -6.631126 32.140186 0.018061
v -6.110199 32.140102 0.021381
v -5.615650 32.139847 0.031115
v -5.145535 32.139439 0.046926
v -4.697906 32.138878 0.068475
v -4.270828 32.138176 0.095427
v -3.862350 32.137344 0.127442
v -3.470531 32.136391 0.164183
v -3.093430 32.135323 0.205313
v -2.729099 32.134148 0.250495
v -2.375599 32.132877 0.299389
v -2.030979 32.131519 0.351660
v -1.693302 32.130081 0.406969
v -1.693302 32.112057 1.100521
v -2.080887 32.114082 1.022620
v -2.473331 32.115944 0.951020
v -2.869659 32.117638 0.885812
v -3.268906 32.119164 0.827086
v -3.670094 32.120518 0.774931
v -4.072254 32.121700 0.729438
v -4.474419 32.122707 0.690698
v -4.875607 32.123535 0.658799
v -5.274853 32.124184 0.633832
v -5.671181 32.124653 0.615887
v -6.063625 32.124935 0.605054
v -6.451210 32.125027 0.601423
v -7.248497 32.124660 0.615516
v -7.998302 32.123585 0.656908
v -8.696466 32.121834 0.724273
v -9.338821 32.119446 0.816283
v -9.921204 32.116447 0.931608
v -10.439445 32.112877 1.068923
v -10.889387 32.108772 1.226897
v -11.266859 32.104164 1.404205
v -11.567699 32.099091 1.599518
v -11.787741 32.093582 1.811508
v -11.922819 32.087673 2.038847
v -11.968773 32.081398 2.280208
v -11.921339 32.075226 2.517739
v -11.782557 32.069370 2.743116
v -11.557703 32.063869 2.954720
v -11.252052 32.058773 3.150929
v -10.870876 32.054115 3.330124
v -10.419456 32.049942 3.490684
v -9.903065 32.046295 3.630988
v -9.326975 32.043217 3.749415
v -8.696466 32.040752 3.844347
v -8.016815 32.038937 3.914161
v -7.293289 32.037819 3.957238
v -6.531174 32.037434 3.971957
v -6.139042 32.037514 3.968967
v -5.751423 32.037746 3.959923
v -5.366997 32.038143 3.944713
v -4.984447 32.038700 3.923223
v -4.602451 32.039425 3.895342
v -4.219692 32.040321 3.860956
v -3.834846 32.041386 3.819954
v -3.446606 32.042625 3.772222
v -3.053642 32.044044 3.717648
v -2.654640 32.045643 3.656120
v -2.248280 32.047424 3.587525
v -1.833244 32.049397 3.511749
v -16.466789 32.023792 4.496982
v -18.425926 32.023792 4.496982
v -18.425926 32.138672 0.076398
v -16.466789 32.138672 0.076398
v -28.741379 32.023792 4.496982
v -28.741379 32.138672 0.076398
v -26.782242 32.138672 0.076398
v -26.782242 32.088982 1.988527
v -24.743141 32.088982 1.988527
v -23.989145 32.088692 1.999642
v -23.305811 32.087849 2.032069
v -22.692169 32.086487 2.084438
v -22.147247 32.084644 2.155374
v -21.670074 32.082355 2.243504
v -21.259678 32.079651 2.347457
v -20.915085 32.076576 2.465858
v -20.635323 32.073158 2.597336
v -20.419422 32.069439 2.740517
v -20.266411 32.065449 2.894028
v -20.175318 32.061226 3.056497
v -20.145168 32.056805 3.226550
v -20.173639 32.052334 3.398603
v -20.259655 32.048042 3.563724
v -20.404118 32.043972 3.720382
v -20.607927 32.040161 3.867048
v -20.871990 32.036648 4.002190
v -21.197206 32.033478 4.124279
v -21.584476 32.030682 4.231783
v -22.034708 32.028309 4.323174
v -22.548798 32.026390 4.396919
v -23.127651 32.024975 4.451489
v -23.772171 32.024094 4.485354
v -24.483255 32.023792 4.496982
v -26.782242 32.038612 3.926584
v -24.483255 32.038612 3.926584
v -24.063869 32.038799 3.919510
v -23.693697 32.039326 3.899157
v -23.370308 32.040169 3.866830
v -23.091276 32.041283 3.823836
v -22.854170 32.042645 3.771479
v -22.656561 32.044216 3.711064
v -22.496019 32.045959 3.643898
v -22.370113 32.047848 3.571285
v -22.276415 32.049843 3.494532
v -22.212496 32.051910 3.414942
v -22.175926 32.054020 3.333822
v -22.164276 32.056133 3.252477
v -22.183609 32.058895 3.146240
v -22.240633 32.061443 3.048060
v -22.333891 32.063782 2.958163
v -22.461924 32.065895 2.876773
v -22.623278 32.067783 2.804115
v -22.816490 32.069439 2.740415
v -23.040108 32.070858 2.685898
v -23.292669 32.072029 2.640788
v -23.572720 32.072952 2.605310
v -23.878801 32.073616 2.579691
v -24.209454 32.074020 2.564154
v -24.563219 32.074158 2.558925
v -26.782242 32.074158 2.558925
v -30.900425 32.023792 4.496982
v -38.637012 32.023792 4.496982
v -38.637012 32.138672 0.076398
v -30.720505 32.138672 0.076398
v -30.720505 32.123848 0.646796
v -36.677879 32.123848 0.646796
v -36.677879 32.088139 2.020936
v -31.100338 32.088139 2.020936
v -31.100338 32.073315 2.591334
v -36.677879 32.073315 2.591334
v -36.677879 32.038612 3.926584
v -30.900425 32.038612 3.926584
vn -0.0000 -0.9997 -0.0260
vn 0.0000 -0.9997 -0.0256
vn -0.0000 -0.9997 -0.0250
vn 0.0000 -0.9997 -0.0259
vn 0.0000 -0.9997 -0.0262
vn -0.0000 -0.9997 -0.0261
vn 0.0000 -0.9997 -0.0257
vn -0.0000 -0.9996 -0.0266
vn -0.0000 -0.9996 -0.0269
vn 0.0000 -0.9997 -0.0258
vn 0.0000 0.0000 1.0000
vn 0.0000 -0.9997 -0.0264
vn 0.0000 -0.9997 -0.0253
vn -0.0009 -1.0000 0.0000
vn -0.0000 -0.9997 -0.0263
vn -0.0000 -0.9996 -0.0265
vn -0.0000 -0.9997 -0.0254
vn 0.0000 -0.9996 -0.0289
vn -0.0001 -0.9993 -0.0374
vn 0.0000 -0.9997 -0.0252
usemtl Material.006
s off
f 3//1 77//1 2//1
f 77//1 1//1 2//1
f 77//1 78//1 1//1
f 3//1 76//1 77//1
f 76//2 74//2 75//2
f 3//1 74//1 76//1
f 3//1 73//1 74//1
f 3//1 72//1 73//1
f 3//1 71//1 72//1
f 3//3 4//3 71//3
f 4//1 70//1 71//1
f 4//4 5//4 70//4
f 5//1 69//1 70//1
f 5//5 6//5 69//5
f 6//4 68//4 69//4
f 7//5 68//5 6//5
f 8//4 68//4 7//4
f 9//1 68//1 8//1
f 9//1 67//1 68//1
f 10//6 67//6 9//6
f 11//1 67//1 10//1
f 11//1 66//1 67//1
f 12//1 66//1 11//1
f 12//1 65//1 66//1
f 13//1 65//1 12//1
f 14//1 65//1 13//1
f 14//4 64//4 65//4
f 15//1 64//1 14//1
f 15//1 63//1 64//1
f 16//1 63//1 15//1
f 17//1 63//1 16//1
f 17//1 62//1 63//1
f 18//1 62//1 17//1
f 19//1 62//1 18//1
f 19//1 61//1 62//1
f 20//1 61//1 19//1
f 40//1 38//1 39//1
f 21//1 61//1 20//1
f 40//1 37//1 38//1
f 21//4 60//4 61//4
f 22//6 60//6 21//6
f 40//1 36//1 37//1
f 40//1 35//1 36//1
f 23//4 60//4 22//4
f 40//1 34//1 35//1
f 40//1 33//1 34//1
f 24//4 60//4 23//4
f 40//1 32//1 33//1
f 24//1 59//1 60//1
f 25//4 59//4 24//4
f 40//4 31//4 32//4
f 40//6 30//6 31//6
f 26//5 59//5 25//5
f 40//1 29//1 30//1
f 40//1 28//1 29//1
f 27//4 59//4 26//4
f 40//1 27//1 28//1
f 40//1 59//1 27//1
f 40//1 58//1 59//1
f 40//1 57//1 58//1
f 40//4 56//4 57//4
f 41//6 56//6 40//6
f 42//1 56//1 41//1
f 42//1 55//1 56//1
f 43//6 55//6 42//6
f 44//4 55//4 43//4
f 45//5 55//5 44//5
f 45//1 54//1 55//1
f 46//7 54//7 45//7
f 47//2 54//2 46//2
f 47//6 53//6 54//6
f 48//2 53//2 47//2
f 49//8 53//8 48//8
f 50//4 53//4 49//4
f 50//2 52//2 53//2
f 51//9 52//9 50//9
f 81//1 79//1 80//1
f 81//1 82//1 79//1
f 85//1 83//1 84//1
f 85//1 94//1 83//1
f 94//10 95//10 83//10
f 95//1 93//1 83//1
f 85//1 97//1 94//1
f 96//1 93//1 95//1
f 85//1 96//1 97//1
f 85//1 93//1 96//1
f 85//1 92//1 93//1
f 85//1 91//1 92//1
f 86//1 91//1 85//1
f 87//11 91//11 86//11
f 88//1 90//1 87//1
f 90//11 91//11 87//11
f 88//1 89//1 90//1
f 100//1 98//1 99//1
f 100//1 109//1 98//1
f 109//10 110//10 98//10
f 110//1 108//1 98//1
f 100//1 112//1 109//1
f 111//1 108//1 110//1
f 100//1 111//1 112//1
f 100//1 108//1 111//1
f 100//1 107//1 108//1
f 100//1 106//1 107//1
f 101//1 106//1 100//1
f 102//11 106//11 101//11
f 103//1 105//1 102//1
f 105//11 106//11 102//11
f 103//1 104//1 105//1
f 126//1 124//1 125//1
f 126//12 123//12 124//12
f 126//4 122//4 123//4
f 127//4 122//4 126//4
f 127//4 121//4 122//4
f 127//1 120//1 121//1
f 127//1 119//1 120//1
f 128//4 119//4 127//4
f 128//1 118//1 119//1
f 128//1 117//1 118//1
f 128//1 116//1 117//1
f 129//1 116//1 128//1
f 129//1 115//1 116//1
f 129//1 114//1 115//1
f 129//4 113//4 114//4
f 130//1 113//1 129//1
f 130//1 200//1 113//1
f 200//1 201//1 113//1
f 201//7 202//7 113//7
f 202//6 203//6 113//6
f 203//4 204//4 113//4
f 204//1 205//1 113//1
f 205//1 206//1 113//1
f 206//1 207//1 113//1
f 207//1 208//1 113//1
f 208//1 209//1 113//1
f 209//1 210//1 113//1
f 131//1 198//1 130//1
f 198//13 199//13 130//13
f 199//14 200//14 130//14
f 131//10 197//10 198//10
f 131//6 196//6 197//6
f 131//1 195//1 196//1
f 132//1 195//1 131//1
f 132//6 194//6 195//6
f 132//4 193//4 194//4
f 133//1 193//1 132//1
f 133//1 192//1 193//1
f 133//1 191//1 192//1
f 134//1 191//1 133//1
f 134//1 190//1 191//1
f 135//1 190//1 134//1
f 135//1 189//1 190//1
f 135//1 188//1 189//1
f 136//1 188//1 135//1
f 136//4 187//4 188//4
f 137//1 187//1 136//1
f 137//1 186//1 187//1
f 137//1 185//1 186//1
f 138//1 185//1 137//1
f 138//1 184//1 185//1
f 139//1 184//1 138//1
f 139//1 183//1 184//1
f 140//1 183//1 139//1
f 140//1 182//1 183//1
f 141//1 182//1 140//1
f 141//1 181//1 182//1
f 142//1 181//1 141//1
f 142//1 180//1 181//1
f 163//1 161//1 162//1
f 142//1 179//1 180//1
f 164//1 161//1 163//1
f 143//1 179//1 142//1
f 165//1 161//1 164//1
f 143//1 178//1 179//1
f 166//1 161//1 165//1
f 167//4 161//4 166//4
f 143//4 177//4 178//4
f 168//1 161//1 167//1
f 144//1 177//1 143//1
f 169//1 161//1 168//1
f 144//4 176//4 177//4
f 170//4 161//4 169//4
f 171//4 161//4 170//4
f 144//6 175//6 176//6
f 172//1 161//1 171//1
f 173//15 161//15 172//15
f 144//5 174//5 175//5
f 174//7 161//7 173//7
f 144//4 161//4 174//4
f 145//1 161//1 144//1
f 145//10 160//10 161//10
f 146//1 160//1 145//1
f 146//1 159//1 160//1
f 146//1 158//1 159//1
f 146//1 157//1 158//1
f 147//1 157//1 146//1
f 147//4 156//4 157//4
f 147//4 155//4 156//4
f 147//6 154//6 155//6
f 148//4 154//4 147//4
f 148//4 153//4 154//4
f 148//16 152//16 153//16
f 148//7 151//7 152//7
f 149//17 151//17 148//17
f 149//18 150//18 151//18
f 213//1 211//1 212//1
f 213//1 214//1 211//1
f 216//1 244//1 215//1
f 244//1 243//1 215//1
f 244//1 242//1 243//1
f 244//1 241//1 242//1
f 244//1 240//1 241//1
f 244//1 239//1 240//1
f 244//4 238//4 239//4
f 244//1 237//1 238//1
f 244//4 236//4 237//4
f 244//1 245//1 236//1
f 245//1 235//1 236//1
f 216//1 270//1 244//1
f 246//19 235//19 245//19
f 247//20 235//20 246//20
f 248//15 235//15 247//15
f 248//4 234//4 235//4
f 249//7 234//7 248//7
f 250//6 234//6 249//6
f 251//1 234//1 250//1
f 251//1 233//1 234//1
f 252//1 233//1 251//1
f 253//4 233//4 252//4
f 254//6 233//6 253//6
f 254//4 232//4 233//4
f 255//1 232//1 254//1
f 256//1 232//1 255//1
f 256//1 231//1 232//1
f 257//1 231//1 256//1
f 258//1 231//1 257//1
f 258//1 230//1 231//1
f 259//4 230//4 258//4
f 259//1 229//1 230//1
f 260//4 229//4 259//4
f 261//6 229//6 260//6
f 261//4 228//4 229//4
f 262//1 228//1 261//1
f 263//1 228//1 262//1
f 263//4 227//4 228//4
f 264//1 227//1 263//1
f 265//6 227//6 264//6
f 266//4 227//4 265//4
f 267//4 227//4 266//4
f 267//1 226//1 227//1
f 268//6 226//6 267//6
f 269//6 226//6 268//6
f 216//1 218//1 270//1
f 218//1 269//1 270//1
f 218//1 226//1 269//1
f 218//1 225//1 226//1
f 218//6 224//6 225//6
f 218//1 223//1 224//1
f 218//4 222//4 223//4
f 218//1 221//1 222//1
f 218//1 220//1 221//1
f 218//4 219//4 220//4
f 216//1 217//1 218//1
f 273//1 281//1 272//1
f 281//1 271//1 272//1
f 281//1 282//1 271//1
f 273//1 280//1 281//1
f 273//1 277//1 280//1
f 277//1 279//1 280//1
f 277//1 278//1 279//1
f 273//1 276//1 277//1
f 273//1 275//1 276//1
f 273//1 274//1 275//1
o Wall_1_Cube.002
v -67.400391 32.305668 -0.563863
v -67.400391 32.305668 5.052515
v -67.400391 33.483982 -0.563863
v -67.400391 33.483982 5.052515
v 70.916817 32.305668 -0.563863
v 70.916817 32.305668 5.052515
v 70.916817 33.483982 -0.563863
v 70.916817 33.483982 5.052515
vt 0.375000 0.000000
vt 0.625000 0.000000
vt 0.625000 0.250000
vt 0.375000 0.250000
vt 0.625000 0.500000
vt 0.375000 0.500000
vt 0.625000 0.750000
vt 0.375000 0.750000
vt 0.625000 1.000000
vt 0.375000 1.000000
vt 0.125000 0.500000
vt 0.125000 0.750000
vt 0.875000 0.500000
vt 0.875000 0.750000
vn -1.0000 0.0000 0.0000
vn 0.0000 1.0000 0.0000
vn 1.0000 0.0000 0.0000
vn 0.0000 -1.0000 0.0000
vn 0.0000 0.0000 -1.0000
vn 0.0000 0.0000 1.0000
usemtl WallColor
s off
f 283/1/21 284/2/21 286/3/21 285/4/21
f 285/4/22 286/3/22 290/5/22 289/6/22
f 289/6/23 290/5/23 288/7/23 287/8/23
f 287/8/24 288/7/24 284/9/24 283/10/24
f 285/11/25 289/6/25 287/8/25 283/12/25
f 290/5/26 286/13/26 284/14/26 288/7/26
o Wall_3_Cube.004
v -67.398529 -35.621544 -0.563863
v -67.398529 -35.621544 5.052515
v -68.576843 -35.621544 -0.563863
v -68.576843 -35.621544 5.052515
v -67.398537 33.448284 -0.563863
v -67.398537 33.448284 5.052515
v -68.576851 33.448284 -0.563863
v -68.576851 33.448284 5.052515
vt 0.375000 0.000000
vt 0.625000 0.000000
vt 0.625000 0.250000
vt 0.375000 0.250000
vt 0.625000 0.500000
vt 0.375000 0.500000
vt 0.625000 0.750000
vt 0.375000 0.750000
vt 0.625000 1.000000
vt 0.375000 1.000000
vt 0.125000 0.500000
vt 0.125000 0.750000
vt 0.875000 0.500000
vt 0.875000 0.750000
vn 0.0000 -1.0000 0.0000
vn -1.0000 -0.0000 0.0000
vn 0.0000 1.0000 0.0000
vn 1.0000 0.0000 0.0000
vn 0.0000 0.0000 -1.0000
vn 0.0000 0.0000 1.0000
usemtl WallColor.002
s off
f 291/15/27 292/16/27 294/17/27 293/18/27
f 293/18/28 294/17/28 298/19/28 297/20/28
f 297/20/29 298/19/29 296/21/29 295/22/29
f 295/22/30 296/21/30 292/23/30 291/24/30
f 293/25/31 297/20/31 295/22/31 291/26/31
f 298/19/32 294/27/32 292/28/32 296/21/32
o Wall_4_Cube.005
v 72.145470 -35.621544 -0.563863
v 72.145470 -35.621544 5.052515
v 70.967155 -35.621544 -0.563863
v 70.967155 -35.621544 5.052515
v 72.145462 33.448284 -0.563863
v 72.145462 33.448284 5.052515
v 70.967148 33.448284 -0.563863
v 70.967148 33.448284 5.052515
vt 0.375000 0.000000
vt 0.625000 0.000000
vt 0.625000 0.250000
vt 0.375000 0.250000
vt 0.625000 0.500000
vt 0.375000 0.500000
vt 0.625000 0.750000
vt 0.375000 0.750000
vt 0.625000 1.000000
vt 0.375000 1.000000
vt 0.125000 0.500000
vt 0.125000 0.750000
vt 0.875000 0.500000
vt 0.875000 0.750000
vn 0.0000 -1.0000 0.0000
vn -1.0000 -0.0000 0.0000
vn 0.0000 1.0000 0.0000
vn 1.0000 0.0000 0.0000
vn 0.0000 0.0000 -1.0000
vn 0.0000 0.0000 1.0000
usemtl WallColor.003
s off
f 299/29/33 300/30/33 302/31/33 301/32/33
f 301/32/34 302/31/34 306/33/34 305/34/34
f 305/34/35 306/33/35 304/35/35 303/36/35
f 303/36/36 304/35/36 300/37/36 299/38/36
f 301/39/37 305/34/37 303/36/37 299/40/37
f 306/33/38 302/41/38 300/42/38 304/35/38
o Wall2_Cube.003
v -67.351273 -35.689106 -0.563863
v -67.351273 -35.689106 5.052515
v -67.351273 -34.510792 -0.563863
v -67.351273 -34.510792 5.052515
v 70.885780 -35.689106 -0.563863
v 70.885780 -35.689106 5.052515
v 70.885780 -34.510792 -0.563863
v 70.885780 -34.510792 5.052515
vt 0.375000 0.000000
vt 0.625000 0.000000
vt 0.625000 0.250000
vt 0.375000 0.250000
vt 0.625000 0.500000
vt 0.375000 0.500000
vt 0.625000 0.750000
vt 0.375000 0.750000
vt 0.625000 1.000000
vt 0.375000 1.000000
vt 0.125000 0.500000
vt 0.125000 0.750000
vt 0.875000 0.500000
vt 0.875000 0.750000
vn -1.0000 0.0000 0.0000
vn 0.0000 1.0000 0.0000
vn 1.0000 0.0000 0.0000
vn 0.0000 -1.0000 0.0000
vn 0.0000 0.0000 -1.0000
vn 0.0000 0.0000 1.0000
usemtl WallColor.001
s off
f 307/43/39 308/44/39 310/45/39 309/46/39
f 309/46/40 310/45/40 314/47/40 313/48/40
f 313/48/41 314/47/41 312/49/41 311/50/41
f 311/50/42 312/49/42 308/51/42 307/52/42
f 309/53/43 313/48/43 311/50/43 307/54/43
f 314/47/44 310/55/44 308/56/44 312/49/44
o Floor_Cube.001
v -67.369743 -34.475628 -0.603256
v -67.369743 -34.475628 -0.478184
v -67.369743 32.401196 -0.603256
v -67.369743 32.401196 -0.478184
v 70.894569 -34.475628 -0.603256
v 70.894569 -34.475628 -0.478184
v 70.894569 32.401196 -0.603256
v 70.894569 32.401196 -0.478184
vt 0.375000 0.000000
vt 0.625000 0.000000
vt 0.625000 0.250000
vt 0.375000 0.250000
vt 0.625000 0.500000
vt 0.375000 0.500000
vt 0.625000 0.750000
vt 0.375000 0.750000
vt 0.625000 1.000000
vt 0.375000 1.000000
vt 0.125000 0.500000
vt 0.125000 0.750000
vt 0.875000 0.500000
vt 0.875000 0.750000
vn -1.0000 0.0000 0.0000
vn 0.0000 1.0000 0.0000
vn 1.0000 0.0000 0.0000
vn 0.0000 -1.0000 0.0000
vn 0.0000 0.0000 -1.0000
vn 0.0000 0.0000 1.0000
usemtl Material.004
s off
f 315/57/45 316/58/45 318/59/45 317/60/45
f 317/60/46 318/59/46 322/61/46 321/62/46
f 321/62/47 322/61/47 320/63/47 319/64/47
f 319/64/48 320/63/48 316/65/48 315/66/48
f 317/67/49 321/62/49 319/64/49 315/68/49
f 322/61/50 318/69/50 316/70/50 320/63/50
