# Blender v2.80 (sub 75) OBJ File: 'robot_1.blend'
# www.blender.org
mtllib frame_1.mtl
o Frame_Cube
v 3.589334 -0.023973 0.491337
v 3.482440 -0.023973 0.579289
v 3.268653 -0.023973 0.579289
v 3.161760 -0.023973 0.491337
v 3.268653 -0.023973 0.403384
v 3.482440 -0.023973 0.403384
v 3.552911 0.319426 0.491337
v 3.449660 0.285086 0.579289
v 3.243157 0.216406 0.579289
v 3.139906 0.182066 0.491337
v 3.243157 0.216406 0.403384
v 3.449660 0.285086 0.403384
v 3.446124 0.639423 0.491337
v 3.353551 0.573084 0.579289
v 3.168406 0.440405 0.579289
v 3.075834 0.374065 0.491337
v 3.168406 0.440405 0.403384
v 3.353551 0.573084 0.403384
v 3.276250 0.914211 0.491337
v 3.200665 0.820393 0.579289
v 3.049495 0.632756 0.579289
v 2.973909 0.538937 0.491337
v 3.049495 0.632756 0.403384
v 3.200665 0.820393 0.403384
v 3.054866 1.125063 0.491337
v 3.001420 1.010160 0.579289
v 2.894526 0.780352 0.579289
v 2.841079 0.665449 0.491337
v 2.894526 0.780352 0.403384
v 3.001420 1.010160 0.403384
v 2.797060 1.257610 0.491337
v 2.769393 1.129452 0.579289
v 2.714061 0.873135 0.579289
v 2.686395 0.744977 0.491337
v 2.714061 0.873135 0.403384
v 2.769393 1.129452 0.403384
v 2.520399 1.302820 0.491337
v 2.520399 1.170141 0.579289
v 2.520399 0.904782 0.579289
v 2.520399 0.772103 0.491337
v 2.520399 0.904782 0.403384
v 2.520399 1.170141 0.403384
v 2.520399 -1.350766 0.491337
v 2.520399 -1.218087 0.579289
v 2.520399 -0.952728 0.579289
v 2.520399 -0.820049 0.491337
v 2.520399 -0.952728 0.403384
v 2.520399 -1.218087 0.403384
v 2.797059 -1.305557 0.491337
v 2.769393 -1.177398 0.579289
v 2.714061 -0.921082 0.579289
v 2.686395 -0.792923 0.491337
v 2.714061 -0.921082 0.403384
v 2.769393 -1.177398 0.403384
v 3.054866 -1.173009 0.491337
v 3.001420 -1.058106 0.579289
v 2.894526 -0.828299 0.579289
v 2.841079 -0.713395 0.491337
v 2.894526 -0.828299 0.403384
v 3.001420 -1.058106 0.403384
v 3.276250 -0.962158 0.491337
v 3.200665 -0.868339 0.579289
v 3.049494 -0.680702 0.579289
v 2.973909 -0.586884 0.491337
v 3.049494 -0.680702 0.403384
v 3.200665 -0.868339 0.403384
v 3.446124 -0.687370 0.491337
v 3.353551 -0.621030 0.579289
v 3.168406 -0.488351 0.579289
v 3.075834 -0.422011 0.491337
v 3.168406 -0.488351 0.403384
v 3.353551 -0.621030 0.403384
v 3.552911 -0.367372 0.491337
v 3.449660 -0.333032 0.579289
v 3.243157 -0.264352 0.579289
v 3.139906 -0.230012 0.491337
v 3.243157 -0.264352 0.403384
v 3.449660 -0.333032 0.403384
v 2.236769 2.246659 0.572677
v 2.229095 2.239938 0.397023
v 2.236769 -2.277236 0.572677
v 2.229095 -2.270514 0.397023
v -2.262120 2.246659 0.572677
v -2.254445 2.239938 0.397023
v -2.262120 -2.277236 0.572677
v -2.254445 -2.270514 0.397023
v 2.499811 -2.517570 0.572677
v -2.497528 -2.517570 0.572677
v 2.499811 2.479099 0.572677
v -2.497528 2.479099 0.572677
v -2.497528 2.479099 0.397023
v -2.497528 -2.517570 0.397023
v 2.499811 2.479099 0.397023
v 2.499811 -2.517570 0.397023
v 2.236769 -2.277236 0.572677
v 2.229095 -2.270514 0.397023
v -2.262120 -2.277236 0.572677
v -2.254445 -2.270514 0.397023
vt 0.500000 0.500000
vt 0.541667 0.500000
vt 0.541667 0.666667
vt 0.500000 0.666667
vt 0.541667 0.833333
vt 0.500000 0.833333
vt 0.541667 1.000000
vt 0.500000 1.000000
vt 0.500000 -0.000000
vt 0.541667 -0.000000
vt 0.541667 0.166667
vt 0.500000 0.166667
vt 0.541667 0.333333
vt 0.500000 0.333333
vt 0.583333 0.500000
vt 0.583333 0.666667
vt 0.583333 0.833333
vt 0.583333 1.000000
vt 0.583333 -0.000000
vt 0.583333 0.166667
vt 0.583333 0.333333
vt 0.625000 0.500000
vt 0.625000 0.666667
vt 0.625000 0.833333
vt 0.625000 1.000000
vt 0.625000 -0.000000
vt 0.625000 0.166667
vt 0.625000 0.333333
vt 0.666667 0.500000
vt 0.666667 0.666667
vt 0.666667 0.833333
vt 0.666667 1.000000
vt 0.666667 -0.000000
vt 0.666667 0.166667
vt 0.666667 0.333333
vt 0.708333 0.500000
vt 0.708333 0.666667
vt 0.708333 0.833333
vt 0.708333 1.000000
vt 0.708333 -0.000000
vt 0.708333 0.166667
vt 0.708333 0.333333
vt 0.750000 0.500000
vt 0.750000 0.666667
vt 0.750000 0.833333
vt 0.750000 1.000000
vt 0.750000 -0.000000
vt 0.750000 0.166667
vt 0.750000 0.333333
vt 0.250000 0.500000
vt 0.291667 0.500000
vt 0.291667 0.666667
vt 0.250000 0.666667
vt 0.291667 0.833333
vt 0.250000 0.833333
vt 0.291667 1.000000
vt 0.250000 1.000000
vt 0.250000 -0.000000
vt 0.291667 -0.000000
vt 0.291667 0.166667
vt 0.250000 0.166667
vt 0.291667 0.333333
vt 0.250000 0.333333
vt 0.333333 0.500000
vt 0.333333 0.666667
vt 0.333333 0.833333
vt 0.333333 1.000000
vt 0.333333 -0.000000
vt 0.333333 0.166667
vt 0.333333 0.333333
vt 0.375000 0.500000
vt 0.375000 0.666667
vt 0.375000 0.833333
vt 0.375000 1.000000
vt 0.375000 -0.000000
vt 0.375000 0.166667
vt 0.375000 0.333333
vt 0.416667 0.500000
vt 0.416667 0.666667
vt 0.416667 0.833333
vt 0.416667 1.000000
vt 0.416667 -0.000000
vt 0.416667 0.166667
vt 0.416667 0.333333
vt 0.458333 0.500000
vt 0.458333 0.666667
vt 0.458333 0.833333
vt 0.458333 1.000000
vt 0.458333 -0.000000
vt 0.458333 0.166667
vt 0.458333 0.333333
vt 0.375000 0.250000
vt 0.625000 0.250000
vt 0.625000 0.500000
vt 0.375000 0.500000
vt 0.625000 0.750000
vt 0.375000 0.750000
vt 0.125000 0.500000
vt 0.375000 0.500000
vt 0.375000 0.750000
vt 0.125000 0.750000
vt 0.625000 0.500000
vt 0.875000 0.500000
vt 0.875000 0.750000
vt 0.625000 0.750000
vt 0.397229 0.227771
vt 0.602771 0.227771
vt 0.625000 0.250000
vt 0.375000 0.250000
vt 0.397229 0.022229
vt 0.375000 0.000000
vt 0.602771 0.022229
vt 0.625000 0.000000
vt 0.394080 0.769080
vt 0.394080 0.980920
vt 0.375000 1.000000
vt 0.605920 0.769080
vt 0.605920 0.980920
vt 0.625000 1.000000
vt 0.397229 0.227771
vt 0.605920 0.980920
vt 0.394080 0.980920
vt 0.602771 0.227771
vn 0.6339 0.0672 0.7705
vn 0.0000 0.0000 1.0000
vn -0.6339 -0.0672 0.7705
vn -0.6339 -0.0672 -0.7705
vn 0.0000 0.0000 -1.0000
vn 0.6339 0.0672 -0.7705
vn 0.5963 0.1990 0.7777
vn -0.5963 -0.1990 0.7777
vn -0.5963 -0.1990 -0.7777
vn 0.5963 0.1990 -0.7777
vn 0.5207 0.3219 0.7908
vn -0.5207 -0.3219 0.7908
vn -0.5207 -0.3219 -0.7908
vn 0.5207 0.3219 -0.7908
vn 0.4076 0.4279 0.8067
vn -0.4076 -0.4279 0.8067
vn -0.4076 -0.4279 -0.8067
vn 0.4076 0.4279 -0.8067
vn 0.2608 0.5073 0.8213
vn -0.2608 -0.5073 0.8213
vn -0.2608 -0.5073 -0.8213
vn 0.2608 0.5073 -0.8213
vn 0.0899 0.5503 0.8301
vn -0.0899 -0.5503 0.8301
vn -0.0899 -0.5503 -0.8301
vn 0.0899 0.5503 -0.8301
vn 0.0899 -0.5503 0.8301
vn -0.0899 0.5503 0.8301
vn -0.0899 0.5503 -0.8301
vn 0.0899 -0.5503 -0.8301
vn 0.2608 -0.5073 0.8213
vn -0.2608 0.5073 0.8213
vn -0.2608 0.5073 -0.8213
vn 0.2608 -0.5073 -0.8213
vn 0.4076 -0.4279 0.8067
vn -0.4076 0.4279 0.8067
vn -0.4076 0.4279 -0.8067
vn 0.4076 -0.4279 -0.8067
vn 0.5207 -0.3219 0.7908
vn -0.5207 0.3219 0.7908
vn -0.5207 0.3219 -0.7908
vn 0.5207 -0.3219 -0.7908
vn 0.5963 -0.1990 0.7777
vn -0.5963 0.1990 0.7777
vn -0.5963 0.1990 -0.7777
vn 0.5963 -0.1990 -0.7777
vn 0.6339 -0.0672 0.7705
vn -0.6339 0.0672 0.7705
vn -0.6339 0.0672 -0.7705
vn 0.6339 -0.0672 -0.7705
vn 0.0000 -1.0000 0.0000
vn -1.0000 0.0000 0.0000
vn 1.0000 0.0000 0.0000
vn 0.0000 1.0000 0.0000
vn -0.9990 0.0000 0.0436
vn 0.9990 0.0000 0.0436
vn 0.0000 -0.9993 0.0382
vn 0.0000 0.9993 0.0382
usemtl Material
s off
f 1/1/1 7/2/1 8/3/1 2/4/1
f 2/4/2 8/3/2 9/5/2 3/6/2
f 3/6/3 9/5/3 10/7/3 4/8/3
f 4/9/4 10/10/4 11/11/4 5/12/4
f 5/12/5 11/11/5 12/13/5 6/14/5
f 6/14/6 12/13/6 7/2/6 1/1/6
f 7/2/7 13/15/7 14/16/7 8/3/7
f 8/3/2 14/16/2 15/17/2 9/5/2
f 9/5/8 15/17/8 16/18/8 10/7/8
f 10/10/9 16/19/9 17/20/9 11/11/9
f 11/11/5 17/20/5 18/21/5 12/13/5
f 12/13/10 18/21/10 13/15/10 7/2/10
f 13/15/11 19/22/11 20/23/11 14/16/11
f 14/16/2 20/23/2 21/24/2 15/17/2
f 15/17/12 21/24/12 22/25/12 16/18/12
f 16/19/13 22/26/13 23/27/13 17/20/13
f 17/20/5 23/27/5 24/28/5 18/21/5
f 18/21/14 24/28/14 19/22/14 13/15/14
f 19/22/15 25/29/15 26/30/15 20/23/15
f 20/23/2 26/30/2 27/31/2 21/24/2
f 21/24/16 27/31/16 28/32/16 22/25/16
f 22/26/17 28/33/17 29/34/17 23/27/17
f 23/27/5 29/34/5 30/35/5 24/28/5
f 24/28/18 30/35/18 25/29/18 19/22/18
f 25/29/19 31/36/19 32/37/19 26/30/19
f 26/30/2 32/37/2 33/38/2 27/31/2
f 27/31/20 33/38/20 34/39/20 28/32/20
f 28/33/21 34/40/21 35/41/21 29/34/21
f 29/34/5 35/41/5 36/42/5 30/35/5
f 30/35/22 36/42/22 31/36/22 25/29/22
f 31/36/23 37/43/23 38/44/23 32/37/23
f 32/37/2 38/44/2 39/45/2 33/38/2
f 33/38/24 39/45/24 40/46/24 34/39/24
f 34/40/25 40/47/25 41/48/25 35/41/25
f 35/41/5 41/48/5 42/49/5 36/42/5
f 36/42/26 42/49/26 37/43/26 31/36/26
f 43/50/27 49/51/27 50/52/27 44/53/27
f 44/53/2 50/52/2 51/54/2 45/55/2
f 45/55/28 51/54/28 52/56/28 46/57/28
f 46/58/29 52/59/29 53/60/29 47/61/29
f 47/61/5 53/60/5 54/62/5 48/63/5
f 48/63/30 54/62/30 49/51/30 43/50/30
f 49/51/31 55/64/31 56/65/31 50/52/31
f 50/52/2 56/65/2 57/66/2 51/54/2
f 51/54/32 57/66/32 58/67/32 52/56/32
f 52/59/33 58/68/33 59/69/33 53/60/33
f 53/60/5 59/69/5 60/70/5 54/62/5
f 54/62/34 60/70/34 55/64/34 49/51/34
f 55/64/35 61/71/35 62/72/35 56/65/35
f 56/65/2 62/72/2 63/73/2 57/66/2
f 57/66/36 63/73/36 64/74/36 58/67/36
f 58/68/37 64/75/37 65/76/37 59/69/37
f 59/69/5 65/76/5 66/77/5 60/70/5
f 60/70/38 66/77/38 61/71/38 55/64/38
f 61/71/39 67/78/39 68/79/39 62/72/39
f 62/72/2 68/79/2 69/80/2 63/73/2
f 63/73/40 69/80/40 70/81/40 64/74/40
f 64/75/41 70/82/41 71/83/41 65/76/41
f 65/76/5 71/83/5 72/84/5 66/77/5
f 66/77/42 72/84/42 67/78/42 61/71/42
f 67/78/43 73/85/43 74/86/43 68/79/43
f 68/79/2 74/86/2 75/87/2 69/80/2
f 69/80/44 75/87/44 76/88/44 70/81/44
f 70/82/45 76/89/45 77/90/45 71/83/45
f 71/83/5 77/90/5 78/91/5 72/84/5
f 72/84/46 78/91/46 73/85/46 67/78/46
f 73/85/47 1/1/47 2/4/47 74/86/47
f 74/86/2 2/4/2 3/6/2 75/87/2
f 75/87/48 3/6/48 4/8/48 76/88/48
f 76/89/49 4/9/49 5/12/49 77/90/49
f 77/90/5 5/12/5 6/14/5 78/91/5
f 78/91/50 6/14/50 1/1/50 73/85/50
f 94/92/51 87/93/51 88/94/51 92/95/51
f 92/95/52 88/94/52 90/96/52 91/97/52
f 93/98/53 89/99/53 87/100/53 94/101/53
f 91/102/54 90/103/54 89/104/54 93/105/54
f 81/106/2 85/107/2 88/108/2 87/109/2
f 79/110/2 81/106/2 87/109/2 89/111/2
f 85/107/2 83/112/2 90/113/2 88/108/2
f 83/112/2 79/110/2 89/111/2 90/113/2
f 84/114/5 86/115/5 92/116/5 91/97/5
f 80/117/5 84/114/5 91/97/5 93/105/5
f 86/115/5 82/118/5 94/119/5 92/116/5
f 82/118/5 80/117/5 93/105/5 94/119/5
f 79/110/55 80/117/55 82/118/55 81/106/55
f 85/107/56 86/115/56 84/114/56 83/112/56
f 83/112/57 84/114/57 80/117/57 79/110/57
f 95/120/58 96/121/58 98/122/58 97/123/58
f 37/43/52 42/49/52 41/48/52 40/47/52 39/45/52 38/44/52
f 43/50/52 44/53/52 45/55/52 46/58/52 47/61/52 48/63/52
