# Blender v2.80 (sub 75) OBJ File: 'robot_1.blend'
# www.blender.org
mtllib lightball_1.mtl
o LightBall_Sphere.001
v 0.000000 -0.000000 -0.500000
v 0.000000 -0.353553 -0.353553
v 0.353553 0.353553 0.000000
v 0.500000 -0.000000 0.000000
v 0.353553 -0.353553 0.000000
v -0.000000 0.500000 0.000000
v -0.000000 0.353553 0.353553
v -0.000000 -0.000000 0.500000
v -0.000000 -0.353553 0.353553
v 0.000000 -0.500000 0.000000
v -0.353553 0.353553 -0.000000
v -0.500000 -0.000000 -0.000000
v -0.353553 -0.353553 -0.000000
v 0.000000 0.353553 -0.353553
vt 0.625000 0.000000
vt 0.750000 0.250000
vt 0.500000 0.250000
vt 0.750000 0.500000
vt 0.750000 0.750000
vt 0.500000 0.750000
vt 0.500000 0.500000
vt 0.625000 1.000000
vt 0.375000 0.000000
vt 0.250000 0.250000
vt 0.250000 0.750000
vt 0.250000 0.500000
vt 0.375000 1.000000
vt 0.125000 0.000000
vt 0.000000 0.250000
vt 0.000000 0.750000
vt 0.000000 0.500000
vt 0.125000 1.000000
vt 0.875000 0.000000
vt 1.000000 0.250000
vt 1.000000 0.500000
vt 1.000000 0.750000
vt 0.875000 1.000000
vn 0.3574 -0.8629 -0.3574
vn 0.6786 0.2811 -0.6786
vn 0.6786 -0.2811 -0.6786
vn 0.3574 0.8629 -0.3574
vn 0.3574 -0.8629 0.3574
vn 0.6786 0.2811 0.6786
vn 0.6786 -0.2811 0.6786
vn 0.3574 0.8629 0.3574
vn -0.3574 -0.8629 0.3574
vn -0.6786 0.2811 0.6786
vn -0.6786 -0.2811 0.6786
vn -0.3574 0.8629 0.3574
vn -0.3574 -0.8629 -0.3574
vn -0.6786 0.2811 -0.6786
vn -0.6786 -0.2811 -0.6786
vn -0.3574 0.8629 -0.3574
usemtl Material.009
s off
f 10/1/1 2/2/1 5/3/1
f 1/4/2 14/5/2 3/6/2 4/7/2
f 2/2/3 1/4/3 4/7/3 5/3/3
f 14/5/4 6/8/4 3/6/4
f 10/9/5 5/3/5 9/10/5
f 4/7/6 3/6/6 7/11/6 8/12/6
f 5/3/7 4/7/7 8/12/7 9/10/7
f 3/6/8 6/13/8 7/11/8
f 10/14/9 9/10/9 13/15/9
f 8/12/10 7/11/10 11/16/10 12/17/10
f 9/10/11 8/12/11 12/17/11 13/15/11
f 7/11/12 6/18/12 11/16/12
f 10/19/13 13/20/13 2/2/13
f 12/21/14 11/22/14 14/5/14 1/4/14
f 13/20/15 12/21/15 1/4/15 2/2/15
f 11/22/16 6/23/16 14/5/16
